<?xml version="1.0" encoding="UTF-8" standalone="no"?>
<!DOCTYPE svg PUBLIC "-//W3C//DTD SVG 1.1//EN"
 "http://www.w3.org/Graphics/SVG/1.1/DTD/svg11.dtd">
<!-- Generated by graphviz version 2.43.0 (0)
 -->
<!-- Title: planner_state_machine Pages: 1 -->
<svg width="1532pt" height="692pt"
 viewBox="0.00 0.00 1532.15 692.00" xmlns="http://www.w3.org/2000/svg" xmlns:xlink="http://www.w3.org/1999/xlink">
<g id="graph0" class="graph" transform="scale(1 1) rotate(0) translate(18 674)">
<title>planner_state_machine</title>
<polygon fill="white" stroke="transparent" points="-18,18 -18,-674 1514.15,-674 1514.15,18 -18,18"/>
<!-- start -->
<g id="node1" class="node">
<title>start</title>
<ellipse fill="#0f172a" stroke="#0f172a" cx="6.48" cy="-523" rx="6.48" ry="6.48"/>
</g>
<!-- IDLE -->
<g id="node2" class="node">
<title>IDLE</title>
<ellipse fill="#e0f2fe" stroke="#0284c7" cx="90.96" cy="-523" rx="27" ry="18"/>
<text text-anchor="middle" x="90.96" y="-520.2" font-family="Helvetica,sans-Serif" font-size="11.00">IDLE</text>
</g>
<!-- start&#45;&gt;IDLE -->
<g id="edge1" class="edge">
<title>start&#45;&gt;IDLE</title>
<path fill="none" stroke="#475569" stroke-width="1.1" d="M13.15,-523C21.89,-523 39.33,-523 55.38,-523"/>
<polygon fill="#475569" stroke="#475569" stroke-width="1.1" points="55.6,-525.8 63.6,-523 55.6,-520.2 55.6,-525.8"/>
</g>
<!-- PLANNING -->
<g id="node3" class="node">
<title>PLANNING</title>
<ellipse fill="#dbeafe" stroke="#2563eb" cx="279.46" cy="-523" rx="44.5" ry="18"/>
<text text-anchor="middle" x="279.46" y="-520.2" font-family="Helvetica,sans-Serif" font-size="11.00">PLANNING</text>
</g>
<!-- IDLE&#45;&gt;PLANNING -->
<g id="edge2" class="edge">
<title>IDLE&#45;&gt;PLANNING</title>
<path fill="none" stroke="#475569" stroke-width="1.1" d="M118.29,-523C146.26,-523 191.23,-523 226.41,-523"/>
<polygon fill="#475569" stroke="#475569" stroke-width="1.1" points="226.67,-525.8 234.67,-523 226.67,-520.2 226.67,-525.8"/>
<text text-anchor="middle" x="176.46" y="-526" font-family="Helvetica,sans-Serif" font-size="10.00">goal received</text>
</g>
<!-- EXECUTING -->
<g id="node4" class="node">
<title>EXECUTING</title>
<ellipse fill="#dcfce7" stroke="#16a34a" cx="475.07" cy="-316" rx="48.21" ry="18"/>
<text text-anchor="middle" x="475.07" y="-313.2" font-family="Helvetica,sans-Serif" font-size="11.00">EXECUTING</text>
</g>
<!-- PLANNING&#45;&gt;EXECUTING -->
<g id="edge3" class="edge">
<title>PLANNING&#45;&gt;EXECUTING</title>
<path fill="none" stroke="#475569" stroke-width="1.1" d="M296.3,-506.06C330.92,-469.05 413.34,-380.92 452.58,-338.97"/>
<polygon fill="#475569" stroke="#475569" stroke-width="1.1" points="454.85,-340.64 458.27,-332.88 450.76,-336.81 454.85,-340.64"/>
<text text-anchor="middle" x="375.46" y="-447" font-family="Helvetica,sans-Serif" font-size="10.00">path found</text>
</g>
<!-- PREEMPTED -->
<g id="node8" class="node">
<title>PREEMPTED</title>
<ellipse fill="#ede9fe" stroke="#7c3aed" cx="1446.24" cy="-338" rx="49.82" ry="18"/>
<text text-anchor="middle" x="1446.24" y="-335.2" font-family="Helvetica,sans-Serif" font-size="11.00">PREEMPTED</text>
</g>
<!-- PLANNING&#45;&gt;PREEMPTED -->
<g id="edge5" class="edge">
<title>PLANNING&#45;&gt;PREEMPTED</title>
<path fill="none" stroke="#475569" stroke-width="1.1" d="M317.84,-532.19C453.56,-563.51 929.87,-655.36 1263.33,-492 1330.5,-459.1 1393.5,-395.88 1424.74,-361.57"/>
<polygon fill="#475569" stroke="#475569" stroke-width="1.1" points="1426.92,-363.33 1430.2,-355.51 1422.76,-359.58 1426.92,-363.33"/>
<text text-anchor="middle" x="809.75" y="-589" font-family="Helvetica,sans-Serif" font-size="10.00">newer goal</text>
</g>
<!-- CANCELED -->
<g id="node9" class="node">
<title>CANCELED</title>
<ellipse fill="#e5e7eb" stroke="#6b7280" cx="1446.24" cy="-126" rx="45.2" ry="18"/>
<text text-anchor="middle" x="1446.24" y="-123.2" font-family="Helvetica,sans-Serif" font-size="11.00">CANCELED</text>
</g>
<!-- PLANNING&#45;&gt;CANCELED -->
<g id="edge6" class="edge">
<title>PLANNING&#45;&gt;CANCELED</title>
<path fill="none" stroke="#475569" stroke-width="1.1" d="M283.03,-505C296.65,-413.03 363.93,0 474.07,0 474.07,0 474.07,0 1182.33,0 1277.9,0 1375.51,-68.54 1420.16,-104.52"/>
<polygon fill="#475569" stroke="#475569" stroke-width="1.1" points="1418.65,-106.89 1426.61,-109.79 1422.19,-102.56 1418.65,-106.89"/>
<text text-anchor="middle" x="809.75" y="-3" font-family="Helvetica,sans-Serif" font-size="10.00">cancel request</text>
</g>
<!-- ABORTED -->
<g id="node10" class="node">
<title>ABORTED</title>
<ellipse fill="#fecaca" stroke="#dc2626" cx="1446.24" cy="-548" rx="41.48" ry="18"/>
<text text-anchor="middle" x="1446.24" y="-545.2" font-family="Helvetica,sans-Serif" font-size="11.00">ABORTED</text>
</g>
<!-- PLANNING&#45;&gt;ABORTED -->
<g id="edge4" class="edge">
<title>PLANNING&#45;&gt;ABORTED</title>
<path fill="none" stroke="#475569" stroke-width="1.1" d="M294.55,-539.96C324.08,-573.49 396.2,-645 474.07,-645 474.07,-645 474.07,-645 1182.33,-645 1271.64,-645 1368.06,-595.12 1415.47,-566.9"/>
<polygon fill="#475569" stroke="#475569" stroke-width="1.1" points="1416.97,-569.26 1422.37,-562.73 1414.07,-564.47 1416.97,-569.26"/>
<text text-anchor="middle" x="809.75" y="-648" font-family="Helvetica,sans-Serif" font-size="10.00">planning failed</text>
</g>
<!-- WAITING_CLEARANCE -->
<g id="node5" class="node">
<title>WAITING_CLEARANCE</title>
<ellipse fill="#fef3c7" stroke="#d97706" cx="809.75" cy="-349" rx="80.66" ry="18"/>
<text text-anchor="middle" x="809.75" y="-346.2" font-family="Helvetica,sans-Serif" font-size="11.00">WAITING_CLEARANCE</text>
</g>
<!-- EXECUTING&#45;&gt;WAITING_CLEARANCE -->
<g id="edge9" class="edge">
<title>EXECUTING&#45;&gt;WAITING_CLEARANCE</title>
<path fill="none" stroke="#475569" stroke-width="1.1" d="M521.97,-320.55C574.97,-325.81 663.1,-334.55 727.71,-340.96"/>
<polygon fill="#475569" stroke="#475569" stroke-width="1.1" points="727.63,-343.77 735.86,-341.77 728.18,-338.19 727.63,-343.77"/>
<text text-anchor="middle" x="626.17" y="-341" font-family="Helvetica,sans-Serif" font-size="10.00">current state clearance violated</text>
</g>
<!-- REPLANNING -->
<g id="node6" class="node">
<title>REPLANNING</title>
<ellipse fill="#fde68a" stroke="#ca8a04" cx="1181.33" cy="-221" rx="52.84" ry="18"/>
<text text-anchor="middle" x="1181.33" y="-218.2" font-family="Helvetica,sans-Serif" font-size="11.00">REPLANNING</text>
</g>
<!-- EXECUTING&#45;&gt;REPLANNING -->
<g id="edge8" class="edge">
<title>EXECUTING&#45;&gt;REPLANNING</title>
<path fill="none" stroke="#475569" stroke-width="1.1" d="M493.5,-299.31C507.24,-287.18 527.46,-271.47 548.17,-263 746.81,-181.75 1009.88,-199.96 1123.78,-213.21"/>
<polygon fill="#475569" stroke="#475569" stroke-width="1.1" points="1123.77,-216.03 1132.04,-214.19 1124.43,-210.47 1123.77,-216.03"/>
<text text-anchor="middle" x="809.75" y="-217" font-family="Helvetica,sans-Serif" font-size="10.00">path entered replan margin</text>
</g>
<!-- SUCCEEDED -->
<g id="node7" class="node">
<title>SUCCEEDED</title>
<ellipse fill="#bbf7d0" stroke="#15803d" cx="809.75" cy="-417" rx="49.82" ry="18"/>
<text text-anchor="middle" x="809.75" y="-414.2" font-family="Helvetica,sans-Serif" font-size="11.00">SUCCEEDED</text>
</g>
<!-- EXECUTING&#45;&gt;SUCCEEDED -->
<g id="edge7" class="edge">
<title>EXECUTING&#45;&gt;SUCCEEDED</title>
<path fill="none" stroke="#475569" stroke-width="1.1" d="M499.56,-331.68C513.25,-340.22 531.13,-350.36 548.17,-357 617.08,-383.86 701.15,-400.53 754.81,-409.28"/>
<polygon fill="#475569" stroke="#475569" stroke-width="1.1" points="754.49,-412.07 762.83,-410.57 755.38,-406.54 754.49,-412.07"/>
<text text-anchor="middle" x="626.17" y="-402" font-family="Helvetica,sans-Serif" font-size="10.00">goal tolerance reached</text>
</g>
<!-- EXECUTING&#45;&gt;PREEMPTED -->
<g id="edge10" class="edge">
<title>EXECUTING&#45;&gt;PREEMPTED</title>
<path fill="none" stroke="#475569" stroke-width="1.1" d="M482.92,-298.23C493.16,-274.34 514.88,-232.61 548.17,-213 706.2,-119.92 1219.48,-50.14 1371.33,-153 1424.38,-188.93 1439.35,-269.72 1443.58,-311.65"/>
<polygon fill="#475569" stroke="#475569" stroke-width="1.1" points="1440.8,-312.01 1444.31,-319.73 1446.38,-311.51 1440.8,-312.01"/>
<text text-anchor="middle" x="994.83" y="-118" font-family="Helvetica,sans-Serif" font-size="10.00">newer goal</text>
</g>
<!-- EXECUTING&#45;&gt;CANCELED -->
<g id="edge11" class="edge">
<title>EXECUTING&#45;&gt;CANCELED</title>
<path fill="none" stroke="#475569" stroke-width="1.1" d="M478.35,-297.78C483.72,-262.92 500.55,-186.79 548.17,-148 611.84,-96.15 648.29,-125.12 729.17,-111 963.14,-70.15 1027.18,-69.6 1263.33,-95 1309.23,-99.94 1361.1,-109.14 1397.67,-116.24"/>
<polygon fill="#475569" stroke="#475569" stroke-width="1.1" points="1397.3,-119.02 1405.69,-117.81 1398.38,-113.53 1397.3,-119.02"/>
<text text-anchor="middle" x="994.83" y="-87" font-family="Helvetica,sans-Serif" font-size="10.00">cancel request</text>
</g>
<!-- EXECUTING&#45;&gt;ABORTED -->
<g id="edge12" class="edge">
<title>EXECUTING&#45;&gt;ABORTED</title>
<path fill="none" stroke="#475569" stroke-width="1.1" d="M483.54,-334.04C494.23,-357.42 516.18,-397.59 548.17,-418 691.44,-509.4 1231.48,-539.11 1396.83,-546.16"/>
<polygon fill="#475569" stroke="#475569" stroke-width="1.1" points="1396.77,-548.96 1404.88,-546.5 1397,-543.37 1396.77,-548.96"/>
<text text-anchor="middle" x="994.83" y="-527" font-family="Helvetica,sans-Serif" font-size="10.00">timeout or unrecoverable failure</text>
</g>
<!-- WAITING_CLEARANCE&#45;&gt;REPLANNING -->
<g id="edge13" class="edge">
<title>WAITING_CLEARANCE&#45;&gt;REPLANNING</title>
<path fill="none" stroke="#475569" stroke-width="1.1" d="M845.02,-332.72C865.16,-323.63 891.3,-312.63 915.33,-305 984.3,-283.1 1005.76,-293.09 1074.33,-270 1098.46,-261.87 1124.42,-249.93 1144.61,-239.87"/>
<polygon fill="#475569" stroke="#475569" stroke-width="1.1" points="1145.89,-242.36 1151.78,-236.26 1143.37,-237.36 1145.89,-242.36"/>
<text text-anchor="middle" x="994.83" y="-308" font-family="Helvetica,sans-Serif" font-size="10.00">recoverable window found</text>
</g>
<!-- WAITING_CLEARANCE&#45;&gt;PREEMPTED -->
<g id="edge15" class="edge">
<title>WAITING_CLEARANCE&#45;&gt;PREEMPTED</title>
<path fill="none" stroke="#475569" stroke-width="1.1" d="M885.26,-355.4C895.36,-356.06 905.6,-356.63 915.33,-357 1117.85,-364.73 1170.27,-382.43 1371.33,-357 1380.58,-355.83 1390.33,-353.87 1399.61,-351.64"/>
<polygon fill="#475569" stroke="#475569" stroke-width="1.1" points="1400.54,-354.29 1407.62,-349.62 1399.17,-348.86 1400.54,-354.29"/>
<text text-anchor="middle" x="1181.33" y="-373" font-family="Helvetica,sans-Serif" font-size="10.00">newer goal</text>
</g>
<!-- WAITING_CLEARANCE&#45;&gt;CANCELED -->
<g id="edge16" class="edge">
<title>WAITING_CLEARANCE&#45;&gt;CANCELED</title>
<path fill="none" stroke="#475569" stroke-width="1.1" d="M887.57,-344.13C940.53,-339.77 1012.27,-331.84 1074.33,-318 1160.75,-298.73 1181.53,-288.88 1263.33,-255 1312.91,-234.46 1327.91,-232.54 1371.33,-201 1391.96,-186.01 1412.05,-165.09 1426.07,-149.15"/>
<polygon fill="#475569" stroke="#475569" stroke-width="1.1" points="1428.19,-150.98 1431.31,-143.1 1423.96,-147.31 1428.19,-150.98"/>
<text text-anchor="middle" x="1181.33" y="-314" font-family="Helvetica,sans-Serif" font-size="10.00">cancel request</text>
</g>
<!-- WAITING_CLEARANCE&#45;&gt;ABORTED -->
<g id="edge14" class="edge">
<title>WAITING_CLEARANCE&#45;&gt;ABORTED</title>
<path fill="none" stroke="#475569" stroke-width="1.1" d="M852.59,-364.27C871.66,-371.11 894.57,-379.16 915.33,-386 1096.04,-445.56 1313.82,-509.78 1403.53,-535.92"/>
<polygon fill="#475569" stroke="#475569" stroke-width="1.1" points="1402.83,-538.63 1411.29,-538.18 1404.39,-533.25 1402.83,-538.63"/>
<text text-anchor="middle" x="1181.33" y="-496" font-family="Helvetica,sans-Serif" font-size="10.00">recovery timeout or no valid path</text>
</g>
<!-- REPLANNING&#45;&gt;EXECUTING -->
<g id="edge17" class="edge">
<title>REPLANNING&#45;&gt;EXECUTING</title>
<path fill="none" stroke="#475569" stroke-width="1.1" d="M1131.78,-227.55C1004.27,-244.75 660.62,-291.1 528.66,-308.91"/>
<polygon fill="#475569" stroke="#475569" stroke-width="1.1" points="528.21,-306.14 520.65,-309.99 528.96,-311.69 528.21,-306.14"/>
<text text-anchor="middle" x="809.75" y="-284" font-family="Helvetica,sans-Serif" font-size="10.00">new path published</text>
</g>
<!-- REPLANNING&#45;&gt;PREEMPTED -->
<g id="edge19" class="edge">
<title>REPLANNING&#45;&gt;PREEMPTED</title>
<path fill="none" stroke="#475569" stroke-width="1.1" d="M1218.85,-233.78C1257.4,-247.66 1319.61,-271.19 1371.33,-296 1385.24,-302.67 1400.1,-310.89 1412.83,-318.29"/>
<polygon fill="#475569" stroke="#475569" stroke-width="1.1" points="1411.74,-320.89 1420.05,-322.53 1414.57,-316.06 1411.74,-320.89"/>
<text text-anchor="middle" x="1329.83" y="-299" font-family="Helvetica,sans-Serif" font-size="10.00">newer goal</text>
</g>
<!-- REPLANNING&#45;&gt;CANCELED -->
<g id="edge20" class="edge">
<title>REPLANNING&#45;&gt;CANCELED</title>
<path fill="none" stroke="#475569" stroke-width="1.1" d="M1218.34,-207.99C1267.03,-190.4 1353.63,-159.1 1404.6,-140.69"/>
<polygon fill="#475569" stroke="#475569" stroke-width="1.1" points="1405.58,-143.31 1412.16,-137.96 1403.68,-138.04 1405.58,-143.31"/>
<text text-anchor="middle" x="1329.83" y="-185" font-family="Helvetica,sans-Serif" font-size="10.00">cancel request</text>
</g>
<!-- REPLANNING&#45;&gt;ABORTED -->
<g id="edge18" class="edge">
<title>REPLANNING&#45;&gt;ABORTED</title>
<path fill="none" stroke="#475569" stroke-width="1.1" d="M1218.36,-234.13C1233.58,-240.99 1250.66,-250.58 1263.33,-263 1279.94,-279.29 1276.38,-289.03 1288.33,-309 1336.51,-389.48 1399.06,-481.38 1428.52,-523.98"/>
<polygon fill="#475569" stroke="#475569" stroke-width="1.1" points="1426.26,-525.65 1433.12,-530.63 1430.87,-522.46 1426.26,-525.65"/>
<text text-anchor="middle" x="1329.83" y="-437" font-family="Helvetica,sans-Serif" font-size="10.00">replanning failed</text>
</g>
</g>
</svg>
