<?xml version="1.0" encoding="UTF-8" standalone="no"?>
<!DOCTYPE svg PUBLIC "-//W3C//DTD SVG 1.1//EN"
 "http://www.w3.org/Graphics/SVG/1.1/DTD/svg11.dtd">
<!-- Generated by graphviz version 2.43.0 (0)
 -->
<!-- Title: runtime_dataflow Pages: 1 -->
<svg width="949pt" height="382pt"
 viewBox="0.00 0.00 948.80 382.18" xmlns="http://www.w3.org/2000/svg" xmlns:xlink="http://www.w3.org/1999/xlink">
<g id="graph0" class="graph" transform="scale(1 1) rotate(0) translate(14.4 367.78)">
<title>runtime_dataflow</title>
<polygon fill="white" stroke="transparent" points="-14.4,14.4 -14.4,-367.78 934.4,-367.78 934.4,14.4 -14.4,14.4"/>
<!-- Goal -->
<g id="node1" class="node">
<title>Goal</title>
<path fill="#eff6ff" stroke="#334155" d="M115,-252C115,-252 12,-252 12,-252 6,-252 0,-246 0,-240 0,-240 0,-228 0,-228 0,-222 6,-216 12,-216 12,-216 115,-216 115,-216 121,-216 127,-222 127,-228 127,-228 127,-240 127,-240 127,-246 121,-252 115,-252"/>
<text text-anchor="middle" x="63.5" y="-237.2" font-family="Helvetica,sans-Serif" font-size="11.00">/otg/goal_trajectory</text>
<text text-anchor="middle" x="63.5" y="-225.2" font-family="Helvetica,sans-Serif" font-size="11.00">JointTrajectory</text>
</g>
<!-- Planner -->
<g id="node5" class="node">
<title>Planner</title>
<path fill="#dbeafe" stroke="#1d4ed8" stroke-width="2" d="M270,-198C270,-198 175,-198 175,-198 169,-198 163,-192 163,-186 163,-186 163,-174 163,-174 163,-168 169,-162 175,-162 175,-162 270,-162 270,-162 276,-162 282,-168 282,-174 282,-174 282,-186 282,-186 282,-192 276,-198 270,-198"/>
<text text-anchor="middle" x="222.5" y="-177.2" font-family="Helvetica,sans-Serif" font-size="11.00">/otg_planner_node</text>
</g>
<!-- Goal&#45;&gt;Planner -->
<g id="edge1" class="edge">
<title>Goal&#45;&gt;Planner</title>
<path fill="none" stroke="#475569" stroke-width="1.1" d="M117.22,-215.87C131.27,-211.03 146.57,-205.77 161,-200.81"/>
<polygon fill="#475569" stroke="#475569" stroke-width="1.1" points="162.27,-203.33 168.92,-198.08 160.45,-198.04 162.27,-203.33"/>
</g>
<!-- Cancel -->
<g id="node2" class="node">
<title>Cancel</title>
<path fill="#eff6ff" stroke="#334155" d="M91,-198C91,-198 36,-198 36,-198 30,-198 24,-192 24,-186 24,-186 24,-174 24,-174 24,-168 30,-162 36,-162 36,-162 91,-162 91,-162 97,-162 103,-168 103,-174 103,-174 103,-186 103,-186 103,-192 97,-198 91,-198"/>
<text text-anchor="middle" x="63.5" y="-183.2" font-family="Helvetica,sans-Serif" font-size="11.00">/otg/cancel</text>
<text text-anchor="middle" x="63.5" y="-171.2" font-family="Helvetica,sans-Serif" font-size="11.00">Trigger</text>
</g>
<!-- Cancel&#45;&gt;Planner -->
<g id="edge2" class="edge">
<title>Cancel&#45;&gt;Planner</title>
<path fill="none" stroke="#475569" stroke-width="1.1" d="M103.31,-180C118.9,-180 137.33,-180 154.93,-180"/>
<polygon fill="#475569" stroke="#475569" stroke-width="1.1" points="154.95,-182.8 162.95,-180 154.95,-177.2 154.95,-182.8"/>
</g>
<!-- JS -->
<g id="node3" class="node">
<title>JS</title>
<path fill="#ecfeff" stroke="#334155" d="M908,-262C908,-262 846,-262 846,-262 840,-262 834,-256 834,-250 834,-250 834,-238 834,-238 834,-232 840,-226 846,-226 846,-226 908,-226 908,-226 914,-226 920,-232 920,-238 920,-238 920,-250 920,-250 920,-256 914,-262 908,-262"/>
<text text-anchor="middle" x="877" y="-247.2" font-family="Helvetica,sans-Serif" font-size="11.00">/joint_states</text>
<text text-anchor="middle" x="877" y="-235.2" font-family="Helvetica,sans-Serif" font-size="11.00">JointState</text>
</g>
<!-- JS&#45;&gt;Planner -->
<g id="edge3" class="edge">
<title>JS&#45;&gt;Planner</title>
<path fill="none" stroke="#475569" stroke-width="1.1" d="M840.21,-262.02C747.79,-305.81 496,-407.68 318,-315 274.02,-292.1 246.28,-238.33 232.94,-205.99"/>
<polygon fill="#475569" stroke="#475569" stroke-width="1.1" points="235.43,-204.65 229.86,-198.26 230.22,-206.73 235.43,-204.65"/>
</g>
<!-- Obst -->
<g id="node4" class="node">
<title>Obst</title>
<path fill="#fef3c7" stroke="#334155" d="M100,-144C100,-144 27,-144 27,-144 21,-144 15,-138 15,-132 15,-132 15,-120 15,-120 15,-114 21,-108 27,-108 27,-108 100,-108 100,-108 106,-108 112,-114 112,-120 112,-120 112,-132 112,-132 112,-138 106,-144 100,-144"/>
<text text-anchor="middle" x="63.5" y="-129.2" font-family="Helvetica,sans-Serif" font-size="11.00">/otg/obstacles</text>
<text text-anchor="middle" x="63.5" y="-117.2" font-family="Helvetica,sans-Serif" font-size="11.00">MarkerArray</text>
</g>
<!-- Obst&#45;&gt;Planner -->
<g id="edge4" class="edge">
<title>Obst&#45;&gt;Planner</title>
<path fill="none" stroke="#475569" stroke-width="1.1" d="M112.03,-142.35C127.47,-147.66 144.8,-153.62 161.05,-159.21"/>
<polygon fill="#475569" stroke="#475569" stroke-width="1.1" points="160.45,-161.96 168.92,-161.92 162.27,-156.67 160.45,-161.96"/>
</g>
<!-- State -->
<g id="node6" class="node">
<title>State</title>
<path fill="#f8fafc" stroke="#334155" d="M439,-306C439,-306 344,-306 344,-306 338,-306 332,-300 332,-294 332,-294 332,-282 332,-282 332,-276 338,-270 344,-270 344,-270 439,-270 439,-270 445,-270 451,-276 451,-282 451,-282 451,-294 451,-294 451,-300 445,-306 439,-306"/>
<text text-anchor="middle" x="391.5" y="-291.2" font-family="Helvetica,sans-Serif" font-size="11.00">/otg/planner_state</text>
<text text-anchor="middle" x="391.5" y="-279.2" font-family="Helvetica,sans-Serif" font-size="11.00">String</text>
</g>
<!-- Planner&#45;&gt;State -->
<g id="edge5" class="edge">
<title>Planner&#45;&gt;State</title>
<path fill="none" stroke="#475569" stroke-width="1.1" d="M240.83,-198.22C258.75,-216.19 288.21,-243.45 318,-261 321.3,-262.94 324.76,-264.79 328.31,-266.53"/>
<polygon fill="#475569" stroke="#475569" stroke-width="1.1" points="327.26,-269.13 335.69,-269.97 329.62,-264.06 327.26,-269.13"/>
</g>
<!-- Result -->
<g id="node7" class="node">
<title>Result</title>
<path fill="#f8fafc" stroke="#334155" d="M431.5,-252C431.5,-252 351.5,-252 351.5,-252 345.5,-252 339.5,-246 339.5,-240 339.5,-240 339.5,-228 339.5,-228 339.5,-222 345.5,-216 351.5,-216 351.5,-216 431.5,-216 431.5,-216 437.5,-216 443.5,-222 443.5,-228 443.5,-228 443.5,-240 443.5,-240 443.5,-246 437.5,-252 431.5,-252"/>
<text text-anchor="middle" x="391.5" y="-237.2" font-family="Helvetica,sans-Serif" font-size="11.00">/otg/goal_result</text>
<text text-anchor="middle" x="391.5" y="-225.2" font-family="Helvetica,sans-Serif" font-size="11.00">String</text>
</g>
<!-- Planner&#45;&gt;Result -->
<g id="edge6" class="edge">
<title>Planner&#45;&gt;Result</title>
<path fill="none" stroke="#475569" stroke-width="1.1" d="M279.57,-198.13C296.34,-203.55 314.76,-209.51 331.69,-214.98"/>
<polygon fill="#475569" stroke="#475569" stroke-width="1.1" points="330.88,-217.67 339.36,-217.46 332.61,-212.34 330.88,-217.67"/>
</g>
<!-- Clearance -->
<g id="node8" class="node">
<title>Clearance</title>
<path fill="#f8fafc" stroke="#334155" d="M441,-198C441,-198 342,-198 342,-198 336,-198 330,-192 330,-186 330,-186 330,-174 330,-174 330,-168 336,-162 342,-162 342,-162 441,-162 441,-162 447,-162 453,-168 453,-174 453,-174 453,-186 453,-186 453,-192 447,-198 441,-198"/>
<text text-anchor="middle" x="391.5" y="-183.2" font-family="Helvetica,sans-Serif" font-size="11.00">/otg/min_clearance</text>
<text text-anchor="middle" x="391.5" y="-171.2" font-family="Helvetica,sans-Serif" font-size="11.00">Float32</text>
</g>
<!-- Planner&#45;&gt;Clearance -->
<g id="edge7" class="edge">
<title>Planner&#45;&gt;Clearance</title>
<path fill="none" stroke="#475569" stroke-width="1.1" d="M282.38,-180C295.13,-180 308.73,-180 321.82,-180"/>
<polygon fill="#475569" stroke="#475569" stroke-width="1.1" points="321.9,-182.8 329.9,-180 321.9,-177.2 321.9,-182.8"/>
</g>
<!-- Preview -->
<g id="node9" class="node">
<title>Preview</title>
<path fill="#f8fafc" stroke="#334155" d="M453,-144C453,-144 330,-144 330,-144 324,-144 318,-138 318,-132 318,-132 318,-120 318,-120 318,-114 324,-108 330,-108 330,-108 453,-108 453,-108 459,-108 465,-114 465,-120 465,-120 465,-132 465,-132 465,-138 459,-144 453,-144"/>
<text text-anchor="middle" x="391.5" y="-129.2" font-family="Helvetica,sans-Serif" font-size="11.00">/otg/planned_trajectory</text>
<text text-anchor="middle" x="391.5" y="-117.2" font-family="Helvetica,sans-Serif" font-size="11.00">JointTrajectory</text>
</g>
<!-- Planner&#45;&gt;Preview -->
<g id="edge8" class="edge">
<title>Planner&#45;&gt;Preview</title>
<path fill="none" stroke="#475569" stroke-width="1.1" d="M279.57,-161.87C294.66,-156.99 311.1,-151.68 326.58,-146.67"/>
<polygon fill="#475569" stroke="#475569" stroke-width="1.1" points="327.82,-149.21 334.57,-144.08 326.1,-143.88 327.82,-149.21"/>
</g>
<!-- GoalJoint -->
<g id="node10" class="node">
<title>GoalJoint</title>
<path fill="#f8fafc" stroke="#334155" d="M428,-90C428,-90 355,-90 355,-90 349,-90 343,-84 343,-78 343,-78 343,-66 343,-66 343,-60 349,-54 355,-54 355,-54 428,-54 428,-54 434,-54 440,-60 440,-66 440,-66 440,-78 440,-78 440,-84 434,-90 428,-90"/>
<text text-anchor="middle" x="391.5" y="-75.2" font-family="Helvetica,sans-Serif" font-size="11.00">/otg/goal_joint</text>
<text text-anchor="middle" x="391.5" y="-63.2" font-family="Helvetica,sans-Serif" font-size="11.00">JointState</text>
</g>
<!-- Planner&#45;&gt;GoalJoint -->
<g id="edge9" class="edge">
<title>Planner&#45;&gt;GoalJoint</title>
<path fill="none" stroke="#475569" stroke-width="1.1" d="M240.83,-161.78C258.75,-143.81 288.21,-116.55 318,-99 323.45,-95.79 329.35,-92.84 335.35,-90.18"/>
<polygon fill="#475569" stroke="#475569" stroke-width="1.1" points="336.7,-92.65 342.98,-86.95 334.52,-87.49 336.7,-92.65"/>
</g>
<!-- Cmd -->
<g id="node11" class="node">
<title>Cmd</title>
<path fill="#d1fae5" stroke="#047857" d="M432.5,-36C432.5,-36 350.5,-36 350.5,-36 344.5,-36 338.5,-30 338.5,-24 338.5,-24 338.5,-12 338.5,-12 338.5,-6 344.5,0 350.5,0 350.5,0 432.5,0 432.5,0 438.5,0 444.5,-6 444.5,-12 444.5,-12 444.5,-24 444.5,-24 444.5,-30 438.5,-36 432.5,-36"/>
<text text-anchor="middle" x="391.5" y="-21.2" font-family="Helvetica,sans-Serif" font-size="11.00">/joint_trajectory</text>
<text text-anchor="middle" x="391.5" y="-9.2" font-family="Helvetica,sans-Serif" font-size="11.00">JointTrajectory</text>
</g>
<!-- Planner&#45;&gt;Cmd -->
<g id="edge10" class="edge">
<title>Planner&#45;&gt;Cmd</title>
<path fill="none" stroke="#475569" stroke-width="1.1" d="M231.84,-161.61C245.76,-132.86 276.36,-77.2 318,-45 321.97,-41.93 326.34,-39.17 330.88,-36.72"/>
<polygon fill="#475569" stroke="#475569" stroke-width="1.1" points="332.25,-39.16 338.16,-33.09 329.75,-34.15 332.25,-39.16"/>
</g>
<!-- Ctrl -->
<g id="node12" class="node">
<title>Ctrl</title>
<path fill="#dcfce7" stroke="#15803d" d="M640,-104C640,-104 513,-104 513,-104 507,-104 501,-98 501,-92 501,-92 501,-80 501,-80 501,-74 507,-68 513,-68 513,-68 640,-68 640,-68 646,-68 652,-74 652,-80 652,-80 652,-92 652,-92 652,-98 646,-104 640,-104"/>
<text text-anchor="middle" x="576.5" y="-89.2" font-family="Helvetica,sans-Serif" font-size="11.00">/panda_arm_controller</text>
<text text-anchor="middle" x="576.5" y="-77.2" font-family="Helvetica,sans-Serif" font-size="11.00">JointTrajectoryController</text>
</g>
<!-- Cmd&#45;&gt;Ctrl -->
<g id="edge11" class="edge">
<title>Cmd&#45;&gt;Ctrl</title>
<path fill="none" stroke="#475569" stroke-width="1.1" d="M441.06,-36.04C465.15,-44.99 494.37,-55.85 519.4,-65.16"/>
<polygon fill="#475569" stroke="#475569" stroke-width="1.1" points="518.56,-67.83 527.03,-67.99 520.51,-62.58 518.56,-67.83"/>
</g>
<!-- Panda -->
<g id="node13" class="node">
<title>Panda</title>
<path fill="#fef2f2" stroke="#b91c1c" d="M786,-239C786,-239 700,-239 700,-239 694,-239 688,-233 688,-227 688,-227 688,-215 688,-215 688,-209 694,-203 700,-203 700,-203 786,-203 786,-203 792,-203 798,-209 798,-215 798,-215 798,-227 798,-227 798,-233 792,-239 786,-239"/>
<text text-anchor="middle" x="743" y="-218.2" font-family="Helvetica,sans-Serif" font-size="11.00">Panda in Gazebo</text>
</g>
<!-- Ctrl&#45;&gt;Panda -->
<g id="edge12" class="edge">
<title>Ctrl&#45;&gt;Panda</title>
<path fill="none" stroke="#475569" stroke-width="1.1" d="M599.69,-104.21C629.2,-128.43 681.41,-171.27 713.72,-197.79"/>
<polygon fill="#475569" stroke="#475569" stroke-width="1.1" points="711.94,-199.96 719.9,-202.87 715.5,-195.63 711.94,-199.96"/>
</g>
<!-- Panda&#45;&gt;JS -->
<g id="edge13" class="edge">
<title>Panda&#45;&gt;JS</title>
<path fill="none" stroke="#475569" stroke-width="1.1" d="M798.07,-230.42C807.32,-232.03 816.9,-233.7 826.03,-235.29"/>
<polygon fill="#475569" stroke="#475569" stroke-width="1.1" points="825.57,-238.06 833.93,-236.67 826.53,-232.54 825.57,-238.06"/>
</g>
</g>
</svg>
